<svg width="147" height="39" viewBox="0 0 147 39" fill="none" xmlns="http://www.w3.org/2000/svg">
<path d="M4.28789 2.06532V28.7053H0.183887V2.06532H4.28789ZM18.2801 29.0293C16.4081 29.0293 14.7161 28.6093 13.2041 27.7693C11.6921 26.9053 10.5041 25.7053 9.64007 24.1693C8.77607 22.6093 8.34407 20.8093 8.34407 18.7693C8.34407 16.7533 8.78807 14.9653 9.67607 13.4053C10.5641 11.8453 11.7761 10.6453 13.3121 9.80532C14.8481 8.96532 16.5641 8.54532 18.4601 8.54532C20.3561 8.54532 22.0721 8.96532 23.6081 9.80532C25.1441 10.6453 26.3561 11.8453 27.2441 13.4053C28.1321 14.9653 28.5761 16.7533 28.5761 18.7693C28.5761 20.7853 28.1201 22.5733 27.2081 24.1333C26.2961 25.6933 25.0481 26.9053 23.4641 27.7693C21.9041 28.6093 20.1761 29.0293 18.2801 29.0293ZM18.2801 25.4653C19.3361 25.4653 20.3201 25.2133 21.2321 24.7093C22.1681 24.2053 22.9241 23.4493 23.5001 22.4413C24.0761 21.4333 24.3641 20.2093 24.3641 18.7693C24.3641 17.3293 24.0881 16.1173 23.5361 15.1333C22.9841 14.1253 22.2521 13.3693 21.3401 12.8653C20.4281 12.3613 19.4441 12.1093 18.3881 12.1093C17.3321 12.1093 16.3481 12.3613 15.4361 12.8653C14.5481 13.3693 13.8401 14.1253 13.3121 15.1333C12.7841 16.1173 12.5201 17.3293 12.5201 18.7693C12.5201 20.9053 13.0601 22.5613 14.1401 23.7373C15.2441 24.8893 16.6241 25.4653 18.2801 25.4653ZM40.6251 8.54532C42.1611 8.54532 43.5171 8.85732 44.6931 9.48132C45.8931 10.0813 46.8291 10.8373 47.5011 11.7493V8.86932H51.6411V29.0293C51.6411 30.8533 51.2571 32.4733 50.4891 33.8893C49.7211 35.3293 48.6051 36.4573 47.1411 37.2733C45.7011 38.0893 43.9731 38.4973 41.9571 38.4973C39.2691 38.4973 37.0371 37.8613 35.2611 36.5893C33.4851 35.3413 32.4771 33.6373 32.2371 31.4773H36.3051C36.6171 32.5093 37.2771 33.3373 38.2851 33.9613C39.3171 34.6093 40.5411 34.9333 41.9571 34.9333C43.6131 34.9333 44.9451 34.4293 45.9531 33.4213C46.9851 32.4133 47.5011 30.9493 47.5011 29.0293V25.7173C46.8051 26.6533 45.8571 27.4453 44.6571 28.0933C43.4811 28.7173 42.1371 29.0293 40.6251 29.0293C38.8971 29.0293 37.3131 28.5973 35.8731 27.7333C34.4571 26.8453 33.3291 25.6213 32.4891 24.0613C31.6731 22.4773 31.2651 20.6893 31.2651 18.6973C31.2651 16.7053 31.6731 14.9413 32.4891 13.4053C33.3291 11.8693 34.4571 10.6813 35.8731 9.84132C37.3131 8.97732 38.8971 8.54532 40.6251 8.54532ZM47.5011 18.7693C47.5011 17.4013 47.2131 16.2133 46.6371 15.2053C46.0851 14.1973 45.3531 13.4293 44.4411 12.9013C43.5291 12.3733 42.5451 12.1093 41.4891 12.1093C40.4331 12.1093 39.4491 12.3733 38.5371 12.9013C37.6251 13.4053 36.8811 14.1613 36.3051 15.1693C35.7531 16.1533 35.4771 17.3293 35.4771 18.6973C35.4771 20.0653 35.7531 21.2653 36.3051 22.2973C36.8811 23.3293 37.6251 24.1213 38.5371 24.6733C39.4731 25.2013 40.4571 25.4653 41.4891 25.4653C42.5451 25.4653 43.5291 25.2013 44.4411 24.6733C45.3531 24.1453 46.0851 23.3773 46.6371 22.3693C47.2131 21.3373 47.5011 20.1373 47.5011 18.7693ZM65.6355 29.0293C63.7635 29.0293 62.0715 28.6093 60.5595 27.7693C59.0475 26.9053 57.8595 25.7053 56.9955 24.1693C56.1315 22.6093 55.6995 20.8093 55.6995 18.7693C55.6995 16.7533 56.1435 14.9653 57.0315 13.4053C57.9195 11.8453 59.1315 10.6453 60.6675 9.80532C62.2035 8.96532 63.9195 8.54532 65.8155 8.54532C67.7115 8.54532 69.4275 8.96532 70.9635 9.80532C72.4995 10.6453 73.7115 11.8453 74.5995 13.4053C75.4875 14.9653 75.9315 16.7533 75.9315 18.7693C75.9315 20.7853 75.4755 22.5733 74.5635 24.1333C73.6515 25.6933 72.4035 26.9053 70.8195 27.7693C69.2595 28.6093 67.5315 29.0293 65.6355 29.0293ZM65.6355 25.4653C66.6915 25.4653 67.6755 25.2133 68.5875 24.7093C69.5235 24.2053 70.2795 23.4493 70.8555 22.4413C71.4315 21.4333 71.7195 20.2093 71.7195 18.7693C71.7195 17.3293 71.4435 16.1173 70.8915 15.1333C70.3395 14.1253 69.6075 13.3693 68.6955 12.8653C67.7835 12.3613 66.7995 12.1093 65.7435 12.1093C64.6875 12.1093 63.7035 12.3613 62.7915 12.8653C61.9035 13.3693 61.1955 14.1253 60.6675 15.1333C60.1395 16.1173 59.8755 17.3293 59.8755 18.7693C59.8755 20.9053 60.4155 22.5613 61.4955 23.7373C62.5995 24.8893 63.9795 25.4653 65.6355 25.4653ZM84.7766 12.2173V23.1973C84.7766 23.9413 84.9446 24.4813 85.2806 24.8173C85.6406 25.1293 86.2406 25.2853 87.0806 25.2853H89.6006V28.7053H86.3606C84.5126 28.7053 83.0966 28.2733 82.1126 27.4093C81.1286 26.5453 80.6366 25.1413 80.6366 23.1973V12.2173H78.2966V8.86932H80.6366V3.93732H84.7766V8.86932H89.6006V12.2173H84.7766ZM95.4711 6.24132C94.7271 6.24132 94.1031 5.98932 93.5991 5.48532C93.0951 4.98132 92.8431 4.35732 92.8431 3.61332C92.8431 2.86932 93.0951 2.24532 93.5991 1.74132C94.1031 1.23732 94.7271 0.985321 95.4711 0.985321C96.1911 0.985321 96.8031 1.23732 97.3071 1.74132C97.8111 2.24532 98.0631 2.86932 98.0631 3.61332C98.0631 4.35732 97.8111 4.98132 97.3071 5.48532C96.8031 5.98932 96.1911 6.24132 95.4711 6.24132ZM97.4871 8.86932V28.7053H93.3831V8.86932H97.4871ZM106.979 11.7853C107.675 10.8733 108.623 10.1053 109.823 9.48132C111.023 8.85732 112.379 8.54532 113.891 8.54532C115.619 8.54532 117.191 8.97732 118.607 9.84132C120.047 10.6813 121.175 11.8693 121.991 13.4053C122.807 14.9413 123.215 16.7053 123.215 18.6973C123.215 20.6893 122.807 22.4773 121.991 24.0613C121.175 25.6213 120.047 26.8453 118.607 27.7333C117.191 28.5973 115.619 29.0293 113.891 29.0293C112.379 29.0293 111.035 28.7293 109.859 28.1293C108.683 27.5053 107.723 26.7373 106.979 25.8253V38.1373H102.875V8.86932H106.979V11.7853ZM119.039 18.6973C119.039 17.3293 118.751 16.1533 118.175 15.1693C117.623 14.1613 116.879 13.4053 115.943 12.9013C115.031 12.3733 114.047 12.1093 112.991 12.1093C111.959 12.1093 110.975 12.3733 110.039 12.9013C109.127 13.4293 108.383 14.1973 107.807 15.2053C107.255 16.2133 106.979 17.4013 106.979 18.7693C106.979 20.1373 107.255 21.3373 107.807 22.3693C108.383 23.3773 109.127 24.1453 110.039 24.6733C110.975 25.2013 111.959 25.4653 112.991 25.4653C114.047 25.4653 115.031 25.2013 115.943 24.6733C116.879 24.1213 117.623 23.3293 118.175 22.2973C118.751 21.2653 119.039 20.0653 119.039 18.6973ZM135.878 29.0293C134.006 29.0293 132.314 28.6093 130.802 27.7693C129.29 26.9053 128.102 25.7053 127.238 24.1693C126.374 22.6093 125.942 20.8093 125.942 18.7693C125.942 16.7533 126.386 14.9653 127.274 13.4053C128.162 11.8453 129.374 10.6453 130.91 9.80532C132.446 8.96532 134.162 8.54532 136.058 8.54532C137.954 8.54532 139.67 8.96532 141.206 9.80532C142.742 10.6453 143.954 11.8453 144.842 13.4053C145.73 14.9653 146.174 16.7533 146.174 18.7693C146.174 20.7853 145.718 22.5733 144.806 24.1333C143.894 25.6933 142.646 26.9053 141.062 27.7693C139.502 28.6093 137.774 29.0293 135.878 29.0293ZM135.878 25.4653C136.934 25.4653 137.918 25.2133 138.83 24.7093C139.766 24.2053 140.522 23.4493 141.098 22.4413C141.674 21.4333 141.962 20.2093 141.962 18.7693C141.962 17.3293 141.686 16.1173 141.134 15.1333C140.582 14.1253 139.85 13.3693 138.938 12.8653C138.026 12.3613 137.042 12.1093 135.986 12.1093C134.93 12.1093 133.946 12.3613 133.034 12.8653C132.146 13.3693 131.438 14.1253 130.91 15.1333C130.382 16.1173 130.118 17.3293 130.118 18.7693C130.118 20.9053 130.658 22.5613 131.738 23.7373C132.842 24.8893 134.222 25.4653 135.878 25.4653Z" fill="#BBC3CF"/>
</svg>
