<svg width="21" height="18" viewBox="0 0 21 18" fill="none" xmlns="http://www.w3.org/2000/svg">
<path d="M15.2205 4H16.2205V5C16.2205 5.26522 16.3258 5.51957 16.5134 5.70711C16.7009 5.89464 16.9552 6 17.2205 6C17.4857 6 17.74 5.89464 17.9276 5.70711C18.1151 5.51957 18.2205 5.26522 18.2205 5V4H19.2205C19.4857 4 19.74 3.89464 19.9276 3.70711C20.1151 3.51957 20.2205 3.26522 20.2205 3C20.2205 2.73478 20.1151 2.48043 19.9276 2.29289C19.74 2.10536 19.4857 2 19.2205 2H18.2205V1C18.2205 0.734784 18.1151 0.48043 17.9276 0.292893C17.74 0.105357 17.4857 0 17.2205 0C16.9552 0 16.7009 0.105357 16.5134 0.292893C16.3258 0.48043 16.2205 0.734784 16.2205 1V2H15.2205C14.9552 2 14.7009 2.10536 14.5134 2.29289C14.3258 2.48043 14.2205 2.73478 14.2205 3C14.2205 3.26522 14.3258 3.51957 14.5134 3.70711C14.7009 3.89464 14.9552 4 15.2205 4ZM19.2205 8C18.9552 8 18.7009 8.10536 18.5134 8.29289C18.3258 8.48043 18.2205 8.73478 18.2205 9V15C18.2205 15.2652 18.1151 15.5196 17.9276 15.7071C17.74 15.8946 17.4857 16 17.2205 16H3.22046C2.95524 16 2.70089 15.8946 2.51335 15.7071C2.32582 15.5196 2.22046 15.2652 2.22046 15V5.41L8.10046 11.3C8.66296 11.8618 9.42546 12.1774 10.2205 12.1774C11.0155 12.1774 11.778 11.8618 12.3405 11.3L14.8105 8.83C14.9988 8.6417 15.1046 8.3863 15.1046 8.12C15.1046 7.8537 14.9988 7.5983 14.8105 7.41C14.6222 7.2217 14.3668 7.11591 14.1005 7.11591C13.8342 7.11591 13.5788 7.2217 13.3905 7.41L10.9205 9.88C10.7335 10.0632 10.4822 10.1659 10.2205 10.1659C9.95871 10.1659 9.70739 10.0632 9.52046 9.88L3.63046 4H11.2205C11.4857 4 11.74 3.89464 11.9276 3.70711C12.1151 3.51957 12.2205 3.26522 12.2205 3C12.2205 2.73478 12.1151 2.48043 11.9276 2.29289C11.74 2.10536 11.4857 2 11.2205 2H3.22046C2.42481 2 1.66175 2.31607 1.09914 2.87868C0.53653 3.44129 0.220459 4.20435 0.220459 5V15C0.220459 15.7956 0.53653 16.5587 1.09914 17.1213C1.66175 17.6839 2.42481 18 3.22046 18H17.2205C18.0161 18 18.7792 17.6839 19.3418 17.1213C19.9044 16.5587 20.2205 15.7956 20.2205 15V9C20.2205 8.73478 20.1151 8.48043 19.9276 8.29289C19.74 8.10536 19.4857 8 19.2205 8Z" fill="#4C5D78"/>
</svg>
