<svg width="16" height="16" viewBox="0 0 16 16" fill="none" xmlns="http://www.w3.org/2000/svg">
<path d="M15 6.99988H9V0.999878C9 0.734661 8.89464 0.480308 8.70711 0.292771C8.51957 0.105235 8.26522 -0.00012207 8 -0.00012207C7.73478 -0.00012207 7.48043 0.105235 7.29289 0.292771C7.10536 0.480308 7 0.734661 7 0.999878V6.99988H1C0.734784 6.99988 0.48043 7.10524 0.292893 7.29277C0.105357 7.48031 0 7.73466 0 7.99988C0 8.26509 0.105357 8.51945 0.292893 8.70698C0.48043 8.89452 0.734784 8.99988 1 8.99988H7V14.9999C7 15.2651 7.10536 15.5194 7.29289 15.707C7.48043 15.8945 7.73478 15.9999 8 15.9999C8.26522 15.9999 8.51957 15.8945 8.70711 15.707C8.89464 15.5194 9 15.2651 9 14.9999V8.99988H15C15.2652 8.99988 15.5196 8.89452 15.7071 8.70698C15.8946 8.51945 16 8.26509 16 7.99988C16 7.73466 15.8946 7.48031 15.7071 7.29277C15.5196 7.10524 15.2652 6.99988 15 6.99988Z" fill="#667085"/>
</svg>
