<svg width="21" height="19" viewBox="0 0 21 19" fill="none" xmlns="http://www.w3.org/2000/svg">
<path d="M14.5105 6.71C14.6034 6.80373 14.714 6.87812 14.8359 6.92889C14.9577 6.97966 15.0884 7.0058 15.2205 7.0058C15.3525 7.0058 15.4832 6.97966 15.605 6.92889C15.7269 6.87812 15.8375 6.80373 15.9305 6.71L19.9305 2.71C20.1188 2.5217 20.2246 2.2663 20.2246 2C20.2246 1.7337 20.1188 1.47831 19.9305 1.29C19.7422 1.1017 19.4868 0.995911 19.2205 0.995911C18.9542 0.995911 18.6988 1.1017 18.5105 1.29L15.2205 4.59L13.9305 3.29C13.8372 3.19676 13.7265 3.1228 13.6047 3.07234C13.4829 3.02188 13.3523 2.99591 13.2205 2.99591C12.9542 2.99591 12.6988 3.1017 12.5105 3.29C12.4172 3.38324 12.3433 3.49393 12.2928 3.61575C12.2423 3.73758 12.2164 3.86814 12.2164 4C12.2164 4.2663 12.3222 4.5217 12.5105 4.71L14.5105 6.71ZM19.2205 6C18.9552 6 18.7009 6.10536 18.5134 6.2929C18.3258 6.48043 18.2205 6.73479 18.2205 7V16C18.2205 16.2652 18.1151 16.5196 17.9276 16.7071C17.74 16.8946 17.4857 17 17.2205 17H3.22046C2.95524 17 2.70089 16.8946 2.51335 16.7071C2.32582 16.5196 2.22046 16.2652 2.22046 16V6.41L8.10046 12.3C8.6617 12.8567 9.41997 13.1693 10.2105 13.17C11.0208 13.1658 11.7969 12.8425 12.3705 12.27L14.0905 10.55C14.2788 10.3617 14.3846 10.1063 14.3846 9.84C14.3846 9.5737 14.2788 9.31831 14.0905 9.13C13.9022 8.9417 13.6468 8.83591 13.3805 8.83591C13.1142 8.83591 12.8588 8.9417 12.6705 9.13L10.9205 10.88C10.7335 11.0632 10.4822 11.1659 10.2205 11.1659C9.95871 11.1659 9.70739 11.0632 9.52046 10.88L3.63046 5H9.22046C9.48568 5 9.74003 4.89465 9.92757 4.70711C10.1151 4.51957 10.2205 4.26522 10.2205 4C10.2205 3.73479 10.1151 3.48043 9.92757 3.2929C9.74003 3.10536 9.48568 3 9.22046 3H3.22046C2.42481 3 1.66175 3.31607 1.09914 3.87868C0.53653 4.44129 0.220459 5.20435 0.220459 6V16C0.220459 16.7957 0.53653 17.5587 1.09914 18.1213C1.66175 18.6839 2.42481 19 3.22046 19H17.2205C18.0161 19 18.7792 18.6839 19.3418 18.1213C19.9044 17.5587 20.2205 16.7957 20.2205 16V7C20.2205 6.73479 20.1151 6.48043 19.9276 6.2929C19.74 6.10536 19.4857 6 19.2205 6Z" fill="#4C5D78"/>
</svg>
