<svg width="17" height="40" viewBox="0 0 17 20" fill="none" xmlns="http://www.w3.org/2000/svg">
                            <path d="M9.21 9.29C9.1149 9.19896 9.00275 9.12759 8.88 9.08C8.63654 8.97998 8.36346 8.97998 8.12 9.08C7.99725 9.12759 7.8851 9.19896 7.79 9.29L5.79 11.29C5.6017 11.4783 5.49591 11.7337 5.49591 12C5.49591 12.2663 5.6017 12.5217 5.79 12.71C5.9783 12.8983 6.2337 13.0041 6.5 13.0041C6.7663 13.0041 7.0217 12.8983 7.21 12.71L7.5 12.41V15C7.5 15.2652 7.60536 15.5196 7.79289 15.7071C7.98043 15.8946 8.23478 16 8.5 16C8.76522 16 9.01957 15.8946 9.20711 15.7071C9.39464 15.5196 9.5 15.2652 9.5 15V12.41L9.79 12.71C9.88296 12.8037 9.99356 12.8781 10.1154 12.9289C10.2373 12.9797 10.368 13.0058 10.5 13.0058C10.632 13.0058 10.7627 12.9797 10.8846 12.9289C11.0064 12.8781 11.117 12.8037 11.21 12.71C11.3037 12.617 11.3781 12.5064 11.4289 12.3846C11.4797 12.2627 11.5058 12.132 11.5058 12C11.5058 11.868 11.4797 11.7373 11.4289 11.6154C11.3781 11.4936 11.3037 11.383 11.21 11.29L9.21 9.29ZM16.5 6.94C16.4896 6.84813 16.4695 6.75763 16.44 6.67V6.58C16.3919 6.47718 16.3278 6.38267 16.25 6.3L10.25 0.3C10.1673 0.222216 10.0728 0.158081 9.97 0.11H9.87C9.77276 0.058003 9.66826 0.020922 9.56 0H3.5C2.70435 0 1.94129 0.316071 1.37868 0.87868C0.816071 1.44129 0.5 2.20435 0.5 3V17C0.5 17.7956 0.816071 18.5587 1.37868 19.1213C1.94129 19.6839 2.70435 20 3.5 20H13.5C14.2956 20 15.0587 19.6839 15.6213 19.1213C16.1839 18.5587 16.5 17.7956 16.5 17V7C16.5 7 16.5 7 16.5 6.94ZM10.5 3.41L13.09 6H11.5C11.2348 6 10.9804 5.89464 10.7929 5.70711C10.6054 5.51957 10.5 5.26522 10.5 5V3.41ZM14.5 17C14.5 17.2652 14.3946 17.5196 14.2071 17.7071C14.0196 17.8946 13.7652 18 13.5 18H3.5C3.23478 18 2.98043 17.8946 2.79289 17.7071C2.60536 17.5196 2.5 17.2652 2.5 17V3C2.5 2.73478 2.60536 2.48043 2.79289 2.29289C2.98043 2.10536 3.23478 2 3.5 2H8.5V5C8.5 5.79565 8.81607 6.55871 9.37868 7.12132C9.94129 7.68393 10.7044 8 11.5 8H14.5V17Z" fill="#FEFEFF"/>
                            </svg>
                            