<svg width="21" height="20" viewBox="0 0 21 20" fill="none" xmlns="http://www.w3.org/2000/svg">
<path d="M10.2205 4C9.95524 4 9.70089 4.10536 9.51335 4.29289C9.32582 4.48043 9.22046 4.73478 9.22046 5V15C9.22046 15.2652 9.32582 15.5196 9.51335 15.7071C9.70089 15.8946 9.95524 16 10.2205 16C10.4857 16 10.74 15.8946 10.9276 15.7071C11.1151 15.5196 11.2205 15.2652 11.2205 15V5C11.2205 4.73478 11.1151 4.48043 10.9276 4.29289C10.74 4.10536 10.4857 4 10.2205 4ZM5.22046 10C4.95524 10 4.70089 10.1054 4.51335 10.2929C4.32582 10.4804 4.22046 10.7348 4.22046 11V15C4.22046 15.2652 4.32582 15.5196 4.51335 15.7071C4.70089 15.8946 4.95524 16 5.22046 16C5.48568 16 5.74003 15.8946 5.92757 15.7071C6.1151 15.5196 6.22046 15.2652 6.22046 15V11C6.22046 10.7348 6.1151 10.4804 5.92757 10.2929C5.74003 10.1054 5.48568 10 5.22046 10ZM15.2205 8C14.9552 8 14.7009 8.10536 14.5134 8.29289C14.3258 8.48043 14.2205 8.73478 14.2205 9V15C14.2205 15.2652 14.3258 15.5196 14.5134 15.7071C14.7009 15.8946 14.9552 16 15.2205 16C15.4857 16 15.74 15.8946 15.9276 15.7071C16.1151 15.5196 16.2205 15.2652 16.2205 15V9C16.2205 8.73478 16.1151 8.48043 15.9276 8.29289C15.74 8.10536 15.4857 8 15.2205 8ZM17.2205 0H3.22046C2.42481 0 1.66175 0.316071 1.09914 0.87868C0.53653 1.44129 0.220459 2.20435 0.220459 3V17C0.220459 17.7956 0.53653 18.5587 1.09914 19.1213C1.66175 19.6839 2.42481 20 3.22046 20H17.2205C18.0161 20 18.7792 19.6839 19.3418 19.1213C19.9044 18.5587 20.2205 17.7956 20.2205 17V3C20.2205 2.20435 19.9044 1.44129 19.3418 0.87868C18.7792 0.316071 18.0161 0 17.2205 0ZM18.2205 17C18.2205 17.2652 18.1151 17.5196 17.9276 17.7071C17.74 17.8946 17.4857 18 17.2205 18H3.22046C2.95524 18 2.70089 17.8946 2.51335 17.7071C2.32582 17.5196 2.22046 17.2652 2.22046 17V3C2.22046 2.73478 2.32582 2.48043 2.51335 2.29289C2.70089 2.10536 2.95524 2 3.22046 2H17.2205C17.4857 2 17.74 2.10536 17.9276 2.29289C18.1151 2.48043 18.2205 2.73478 18.2205 3V17Z" fill="#CD38D0"/>
</svg>
