<svg width="16" height="12" viewBox="0 0 16 12" fill="none" xmlns="http://www.w3.org/2000/svg">
<path d="M14.7139 1.20998C14.6209 1.11625 14.5103 1.04186 14.3884 0.991091C14.2666 0.940323 14.1359 0.914185 14.0039 0.914185C13.8718 0.914185 13.7411 0.940323 13.6193 0.991091C13.4974 1.04186 13.3868 1.11625 13.2939 1.20998L5.84386 8.66998L2.71386 5.52998C2.61733 5.43674 2.50339 5.36343 2.37854 5.31423C2.25368 5.26502 2.12036 5.24089 1.98618 5.24321C1.852 5.24553 1.71959 5.27426 1.59651 5.32776C1.47343 5.38125 1.36209 5.45846 1.26886 5.55498C1.17562 5.6515 1.1023 5.76545 1.0531 5.8903C1.0039 6.01516 0.979765 6.14848 0.982087 6.28266C0.984408 6.41684 1.01314 6.54925 1.06663 6.67233C1.12012 6.79541 1.19733 6.90674 1.29386 6.99998L5.13386 10.84C5.22682 10.9337 5.33742 11.0081 5.45928 11.0589C5.58114 11.1096 5.71184 11.1358 5.84386 11.1358C5.97587 11.1358 6.10657 11.1096 6.22843 11.0589C6.35029 11.0081 6.46089 10.9337 6.55386 10.84L14.7139 2.67998C14.8154 2.58634 14.8964 2.47269 14.9518 2.34619C15.0072 2.21969 15.0358 2.08308 15.0358 1.94498C15.0358 1.80688 15.0072 1.67028 14.9518 1.54378C14.8964 1.41728 14.8154 1.30363 14.7139 1.20998Z" fill="#8896AB"/>
</svg>
