<svg width="21" height="20" viewBox="0 0 21 20" fill="none" xmlns="http://www.w3.org/2000/svg">
<path d="M11 9C10.7348 9 10.4804 9.10536 10.2929 9.29289C10.1053 9.48043 9.99999 9.73478 9.99999 10V13C9.99999 13.2652 10.1053 13.5196 10.2929 13.7071C10.4804 13.8946 10.7348 14 11 14C11.2652 14 11.5196 13.8946 11.7071 13.7071C11.8946 13.5196 12 13.2652 12 13V10C12 9.73478 11.8946 9.48043 11.7071 9.29289C11.5196 9.10536 11.2652 9 11 9ZM11 6C10.8022 6 10.6089 6.05865 10.4444 6.16853C10.28 6.27841 10.1518 6.43459 10.0761 6.61732C10.0004 6.80004 9.98062 7.00111 10.0192 7.19509C10.0578 7.38907 10.153 7.56725 10.2929 7.70711C10.4327 7.84696 10.6109 7.9422 10.8049 7.98079C10.9989 8.01937 11.1999 7.99957 11.3827 7.92388C11.5654 7.84819 11.7216 7.72002 11.8315 7.55557C11.9413 7.39112 12 7.19778 12 7C12 6.73478 11.8946 6.48043 11.7071 6.29289C11.5196 6.10536 11.2652 6 11 6ZM11 0C9.68677 0 8.38641 0.258658 7.17315 0.761205C5.9599 1.26375 4.85751 2.00035 3.92892 2.92893C2.05356 4.8043 0.999988 7.34784 0.999988 10C0.991246 12.3091 1.79078 14.5485 3.25999 16.33L1.25999 18.33C1.12123 18.4706 1.02723 18.6492 0.98986 18.8432C0.952486 19.0372 0.973409 19.2379 1.04999 19.42C1.13305 19.5999 1.26769 19.7511 1.43683 19.8544C1.60598 19.9577 1.80199 20.0083 1.99999 20H11C13.6522 20 16.1957 18.9464 18.0711 17.0711C19.9464 15.1957 21 12.6522 21 10C21 7.34784 19.9464 4.8043 18.0711 2.92893C16.1957 1.05357 13.6522 0 11 0V0ZM11 18H4.40999L5.33999 17.07C5.43448 16.9774 5.50965 16.8669 5.56114 16.7451C5.61264 16.6232 5.63944 16.4923 5.63999 16.36C5.63623 16.0962 5.5284 15.8446 5.33999 15.66C4.03057 14.352 3.21516 12.6305 3.03268 10.7888C2.8502 8.94705 3.31193 7.09901 4.33922 5.55952C5.3665 4.02004 6.89578 2.88436 8.6665 2.34597C10.4372 1.80759 12.3398 1.8998 14.0502 2.60691C15.7606 3.31402 17.1728 4.59227 18.0464 6.22389C18.92 7.85551 19.2009 9.73954 18.8411 11.555C18.4814 13.3705 17.5033 15.005 16.0735 16.1802C14.6438 17.3554 12.8508 17.9985 11 18V18Z" fill="#8896AB"/>
</svg>
