<svg width="14" height="17" viewBox="0 0 14 17" fill="none" xmlns="http://www.w3.org/2000/svg">
<path d="M0.553795 8.49999C0.553795 8.721 0.641592 8.93297 0.797873 9.08925C0.954153 9.24553 1.16611 9.33332 1.38713 9.33332H7.71213L5.79546 11.2417C5.71735 11.3191 5.65536 11.4113 5.61305 11.5128C5.57074 11.6144 5.54896 11.7233 5.54896 11.8333C5.54896 11.9433 5.57074 12.0523 5.61305 12.1538C5.65536 12.2554 5.71735 12.3475 5.79546 12.425C5.87293 12.5031 5.9651 12.5651 6.06665 12.6074C6.1682 12.6497 6.27712 12.6715 6.38713 12.6715C6.49714 12.6715 6.60606 12.6497 6.70761 12.6074C6.80916 12.5651 6.90133 12.5031 6.97879 12.425L10.3121 9.09166C10.388 9.0124 10.4475 8.91895 10.4871 8.81666C10.5705 8.61377 10.5705 8.38621 10.4871 8.18332C10.4475 8.08103 10.388 7.98758 10.3121 7.90832L6.97879 4.57499C6.9011 4.49729 6.80885 4.43566 6.70734 4.39361C6.60582 4.35156 6.49701 4.32991 6.38713 4.32991C6.27725 4.32991 6.16844 4.35156 6.06692 4.39361C5.9654 4.43566 5.87316 4.49729 5.79546 4.57499C5.71776 4.65269 5.65613 4.74493 5.61408 4.84645C5.57203 4.94797 5.55039 5.05677 5.55039 5.16666C5.55039 5.27654 5.57203 5.38535 5.61408 5.48687C5.65613 5.58838 5.71776 5.68062 5.79546 5.75832L7.71213 7.66666H1.38713C1.16611 7.66666 0.954153 7.75445 0.797873 7.91073C0.641592 8.06702 0.553795 8.27898 0.553795 8.49999ZM11.3871 0.166656H3.05379C2.39075 0.166656 1.75487 0.430049 1.28603 0.89889C0.817187 1.36773 0.553795 2.00362 0.553795 2.66666V5.16666C0.553795 5.38767 0.641592 5.59963 0.797873 5.75591C0.954153 5.91219 1.16611 5.99999 1.38713 5.99999C1.60814 5.99999 1.8201 5.91219 1.97638 5.75591C2.13266 5.59963 2.22046 5.38767 2.22046 5.16666V2.66666C2.22046 2.44564 2.30826 2.23368 2.46454 2.0774C2.62082 1.92112 2.83278 1.83332 3.05379 1.83332H11.3871C11.6081 1.83332 11.8201 1.92112 11.9764 2.0774C12.1327 2.23368 12.2205 2.44564 12.2205 2.66666V14.3333C12.2205 14.5543 12.1327 14.7663 11.9764 14.9226C11.8201 15.0789 11.6081 15.1667 11.3871 15.1667H3.05379C2.83278 15.1667 2.62082 15.0789 2.46454 14.9226C2.30826 14.7663 2.22046 14.5543 2.22046 14.3333V11.8333C2.22046 11.6123 2.13266 11.4003 1.97638 11.2441C1.8201 11.0878 1.60814 11 1.38713 11C1.16611 11 0.954153 11.0878 0.797873 11.2441C0.641592 11.4003 0.553795 11.6123 0.553795 11.8333V14.3333C0.553795 14.9964 0.817187 15.6322 1.28603 16.1011C1.75487 16.5699 2.39075 16.8333 3.05379 16.8333H11.3871C12.0502 16.8333 12.6861 16.5699 13.1549 16.1011C13.6237 15.6322 13.8871 14.9964 13.8871 14.3333V2.66666C13.8871 2.00362 13.6237 1.36773 13.1549 0.89889C12.6861 0.430049 12.0502 0.166656 11.3871 0.166656Z" fill="#E43F3F"/>
</svg>
