<svg width="21" height="12" viewBox="0 0 21 12" fill="none" xmlns="http://www.w3.org/2000/svg">
                            <path d="M3.29004 4.50002H1.29004C1.02482 4.50002 0.770469 4.60538 0.582932 4.79291C0.395396 4.98045 0.290039 5.2348 0.290039 5.50002C0.290039 5.76523 0.395396 6.01959 0.582932 6.20713C0.770469 6.39466 1.02482 6.50002 1.29004 6.50002H3.29004C3.55526 6.50002 3.80961 6.39466 3.99715 6.20713C4.18468 6.01959 4.29004 5.76523 4.29004 5.50002C4.29004 5.2348 4.18468 4.98045 3.99715 4.79291C3.80961 4.60538 3.55526 4.50002 3.29004 4.50002ZM20.07 1.66002V1.60002C19.7835 1.24981 19.4215 0.968943 19.0111 0.778451C18.6007 0.587958 18.1525 0.492772 17.7 0.500019H9.77004C9.03524 0.493419 8.32358 0.756734 7.77004 1.24002C7.25304 1.69555 6.91313 2.31872 6.81004 3.00002L5.93004 8.00002C5.85437 8.43181 5.87424 8.87494 5.98827 9.29823C6.1023 9.72152 6.30771 10.1147 6.59004 10.45C6.8709 10.7843 7.22132 11.0532 7.61685 11.238C8.01237 11.4228 8.44347 11.519 8.88004 11.52H16.82C17.5333 11.5308 18.227 11.2871 18.7768 10.8326C19.3266 10.3781 19.6965 9.74257 19.82 9.04002L20.7 4.04002C20.7693 3.62132 20.749 3.19268 20.6404 2.78241C20.5318 2.37215 20.3374 1.98959 20.07 1.66002ZM17.33 2.50002L13.93 5.26002C13.729 5.42203 13.4731 5.50002 13.2159 5.47765C12.9587 5.45529 12.7201 5.3343 12.55 5.14002L10.22 2.50002H17.33ZM17.81 8.67002C17.7696 8.90481 17.6466 9.11744 17.4632 9.26961C17.2799 9.42177 17.0483 9.50348 16.81 9.50002H8.88004C8.73482 9.4988 8.5916 9.46596 8.46036 9.40379C8.32911 9.34162 8.21298 9.25161 8.12004 9.14002C8.02686 9.02901 7.95893 8.89908 7.92094 8.75922C7.88296 8.61936 7.87582 8.47291 7.90004 8.33002L8.70004 3.80002L11.05 6.46002C11.5615 7.04139 12.278 7.40245 13.0496 7.46768C13.8212 7.53292 14.5882 7.29726 15.19 6.81002L18.63 4.00002L17.81 8.67002ZM4.29004 0.500019H1.29004C1.02482 0.500019 0.770469 0.605376 0.582932 0.792912C0.395396 0.980448 0.290039 1.2348 0.290039 1.50002C0.290039 1.76524 0.395396 2.01959 0.582932 2.20713C0.770469 2.39466 1.02482 2.50002 1.29004 2.50002H4.29004C4.55526 2.50002 4.80961 2.39466 4.99715 2.20713C5.18468 2.01959 5.29004 1.76524 5.29004 1.50002C5.29004 1.2348 5.18468 0.980448 4.99715 0.792912C4.80961 0.605376 4.55526 0.500019 4.29004 0.500019Z" fill="#FEFEFF"/>
                            </svg>
                            