<svg width="21" height="20" viewBox="0 0 21 20" fill="none" xmlns="http://www.w3.org/2000/svg">
<path d="M10.2205 0C8.28094 0.00368503 6.38435 0.571311 4.76169 1.63374C3.13904 2.69617 1.86036 4.20754 1.0814 5.98377C0.302449 7.76 0.0568382 9.72442 0.374488 11.6378C0.692139 13.5511 1.55934 15.3308 2.87046 16.76C3.80689 17.775 4.9434 18.5851 6.2084 19.1392C7.4734 19.6933 8.83944 19.9793 10.2205 19.9793C11.6015 19.9793 12.9675 19.6933 14.2325 19.1392C15.4975 18.5851 16.634 17.775 17.5705 16.76C18.8816 15.3308 19.7488 13.5511 20.0664 11.6378C20.3841 9.72442 20.1385 7.76 19.3595 5.98377C18.5806 4.20754 17.3019 2.69617 15.6792 1.63374C14.0566 0.571311 12.16 0.00368503 10.2205 0ZM10.2205 18C8.14893 17.9969 6.15938 17.1903 4.67046 15.75C5.12251 14.6495 5.8915 13.7083 6.87972 13.0459C7.86794 12.3835 9.03077 12.0298 10.2205 12.0298C11.4102 12.0298 12.573 12.3835 13.5612 13.0459C14.5494 13.7083 15.3184 14.6495 15.7705 15.75C14.2815 17.1903 12.292 17.9969 10.2205 18ZM8.22046 8C8.22046 7.60444 8.33776 7.21776 8.55752 6.88886C8.77729 6.55996 9.08964 6.30362 9.4551 6.15224C9.82055 6.00087 10.2227 5.96126 10.6106 6.03843C10.9986 6.1156 11.355 6.30608 11.6347 6.58579C11.9144 6.86549 12.1049 7.22186 12.182 7.60982C12.2592 7.99778 12.2196 8.39991 12.0682 8.76537C11.9168 9.13082 11.6605 9.44318 11.3316 9.66294C11.0027 9.8827 10.616 10 10.2205 10C9.69003 10 9.18132 9.78929 8.80625 9.41421C8.43118 9.03914 8.22046 8.53043 8.22046 8ZM17.1305 14C16.237 12.4718 14.8619 11.283 13.2205 10.62C13.7296 10.0427 14.0614 9.33066 14.1759 8.56944C14.2905 7.80822 14.1829 7.03011 13.8662 6.3285C13.5495 5.62688 13.037 5.03156 12.3904 4.61397C11.7437 4.19637 10.9903 3.97425 10.2205 3.97425C9.45067 3.97425 8.69723 4.19637 8.05055 4.61397C7.40388 5.03156 6.89143 5.62688 6.57471 6.3285C6.25799 7.03011 6.15045 7.80822 6.26499 8.56944C6.37953 9.33066 6.71129 10.0427 7.22046 10.62C5.57906 11.283 4.20393 12.4718 3.31046 14C2.59841 12.7871 2.22218 11.4065 2.22046 10C2.22046 7.87827 3.06332 5.84344 4.56361 4.34315C6.0639 2.84285 8.09873 2 10.2205 2C12.3422 2 14.377 2.84285 15.8773 4.34315C17.3776 5.84344 18.2205 7.87827 18.2205 10C18.2187 11.4065 17.8425 12.7871 17.1305 14Z" fill="#4C5D78"/>
</svg>
