<svg width="14" height="20" viewBox="0 0 14 20" fill="none" xmlns="http://www.w3.org/2000/svg">
<path d="M3.29 4.20994L5.29 6.20994C5.38296 6.30367 5.49356 6.37806 5.61542 6.42883C5.73728 6.4796 5.86799 6.50574 6 6.50574C6.13201 6.50574 6.26272 6.4796 6.38458 6.42883C6.50644 6.37806 6.61704 6.30367 6.71 6.20994C6.80373 6.11698 6.87812 6.00638 6.92889 5.88452C6.97966 5.76266 7.0058 5.63195 7.0058 5.49994C7.0058 5.36793 6.97966 5.23722 6.92889 5.11536C6.87812 4.99351 6.80373 4.8829 6.71 4.78994L6.41 4.49994H10C10.2652 4.49994 10.5196 4.39458 10.7071 4.20705C10.8946 4.01951 11 3.76516 11 3.49994C11 3.23472 10.8946 2.98037 10.7071 2.79283C10.5196 2.6053 10.2652 2.49994 10 2.49994H6.41L6.71 2.20994C6.80324 2.1167 6.8772 2.00601 6.92766 1.88419C6.97812 1.76237 7.00409 1.6318 7.00409 1.49994C7.00409 1.36808 6.97812 1.23751 6.92766 1.11569C6.8772 0.99387 6.80324 0.88318 6.71 0.789941C6.61676 0.696703 6.50607 0.622742 6.38425 0.572282C6.26243 0.521821 6.13186 0.49585 6 0.49585C5.86814 0.49585 5.73757 0.521821 5.61575 0.572282C5.49393 0.622742 5.38324 0.696703 5.29 0.789941L3.29 2.78994C3.19896 2.88505 3.12759 2.99719 3.08 3.11994C2.97998 3.3634 2.97998 3.63648 3.08 3.87994C3.12759 4.00269 3.19896 4.11484 3.29 4.20994ZM11 8.49994H3C2.20435 8.49994 1.44129 8.81601 0.87868 9.37862C0.316071 9.94123 0 10.7043 0 11.4999V16.4999C0 17.2956 0.316071 18.0587 0.87868 18.6213C1.44129 19.1839 2.20435 19.4999 3 19.4999H11C11.7956 19.4999 12.5587 19.1839 13.1213 18.6213C13.6839 18.0587 14 17.2956 14 16.4999V11.4999C14 10.7043 13.6839 9.94123 13.1213 9.37862C12.5587 8.81601 11.7956 8.49994 11 8.49994ZM10.58 10.4999L7.7 13.3799C7.51307 13.5632 7.26175 13.6658 7 13.6658C6.73825 13.6658 6.48693 13.5632 6.3 13.3799L3.42 10.4999H10.58ZM12 16.4999C12 16.7652 11.8946 17.0195 11.7071 17.207C11.5196 17.3946 11.2652 17.4999 11 17.4999H3C2.73478 17.4999 2.48043 17.3946 2.29289 17.207C2.10536 17.0195 2 16.7652 2 16.4999V11.9099L4.88 14.7799C5.15545 15.0631 5.48514 15.2879 5.84939 15.4408C6.21363 15.5937 6.60496 15.6716 7 15.6699C7.79538 15.6692 8.55793 15.3527 9.12 14.7899L12 11.9099V16.4999Z" fill="#8896AB"/>
</svg>
