<svg width="22" height="20" viewBox="0 0 22 20" fill="none" xmlns="http://www.w3.org/2000/svg">
<path d="M19.5 12C19.2348 12 18.9804 12.1053 18.7929 12.2929C18.6054 12.4804 18.5 12.7348 18.5 13V17C18.5 17.2652 18.3946 17.5196 18.2071 17.7071C18.0196 17.8946 17.7652 18 17.5 18H3.5C3.23478 18 2.98043 17.8946 2.79289 17.7071C2.60536 17.5196 2.5 17.2652 2.5 17V7.40999L8.38 13.3C8.9425 13.8618 9.705 14.1773 10.5 14.1773C11.295 14.1773 12.0575 13.8618 12.62 13.3L14.26 11.66C14.4483 11.4717 14.5541 11.2163 14.5541 10.95C14.5541 10.6837 14.4483 10.4283 14.26 10.24C14.0717 10.0517 13.8163 9.9459 13.55 9.9459C13.2837 9.9459 13.0283 10.0517 12.84 10.24L11.2 11.88C11.0131 12.0632 10.7618 12.1658 10.5 12.1658C10.2382 12.1658 9.98693 12.0632 9.8 11.88L3.91 5.99999H10.5C10.7652 5.99999 11.0196 5.89463 11.2071 5.70709C11.3946 5.51956 11.5 5.2652 11.5 4.99999C11.5 4.73477 11.3946 4.48042 11.2071 4.29288C11.0196 4.10535 10.7652 3.99999 10.5 3.99999H3.5C2.70435 3.99999 1.94129 4.31606 1.37868 4.87867C0.816071 5.44128 0.5 6.20434 0.5 6.99999V17C0.5 17.7956 0.816071 18.5587 1.37868 19.1213C1.94129 19.6839 2.70435 20 3.5 20H17.5C18.2956 20 19.0587 19.6839 19.6213 19.1213C20.1839 18.5587 20.5 17.7956 20.5 17V13C20.5 12.7348 20.3946 12.4804 20.2071 12.2929C20.0196 12.1053 19.7652 12 19.5 12ZM21.21 3.28999L18.21 0.289988C18.1149 0.198947 18.0028 0.127582 17.88 0.0799879C17.6365 -0.0200301 17.3635 -0.0200301 17.12 0.0799879C16.9972 0.127582 16.8851 0.198947 16.79 0.289988L13.79 3.28999C13.6017 3.47829 13.4959 3.73369 13.4959 3.99999C13.4959 4.26629 13.6017 4.52168 13.79 4.70999C13.9783 4.89829 14.2337 5.00408 14.5 5.00408C14.7663 5.00408 15.0217 4.89829 15.21 4.70999L16.5 3.40999V8.99999C16.5 9.2652 16.6054 9.51956 16.7929 9.70709C16.9804 9.89463 17.2348 9.99999 17.5 9.99999C17.7652 9.99999 18.0196 9.89463 18.2071 9.70709C18.3946 9.51956 18.5 9.2652 18.5 8.99999V3.40999L19.79 4.70999C19.883 4.80372 19.9936 4.87811 20.1154 4.92888C20.2373 4.97965 20.368 5.00579 20.5 5.00579C20.632 5.00579 20.7627 4.97965 20.8846 4.92888C21.0064 4.87811 21.117 4.80372 21.21 4.70999C21.3037 4.61702 21.3781 4.50642 21.4289 4.38456C21.4797 4.26271 21.5058 4.132 21.5058 3.99999C21.5058 3.86798 21.4797 3.73727 21.4289 3.61541C21.3781 3.49355 21.3037 3.38295 21.21 3.28999Z" fill="#8896AB"/>
</svg>
