<svg width="15" height="16" viewBox="0 0 15 16" fill="none" xmlns="http://www.w3.org/2000/svg">
<path d="M14.4981 7.26928L1.06963 0.545996C0.964381 0.49329 0.846162 0.472171 0.729205 0.485184C0.612249 0.498197 0.501542 0.544786 0.410415 0.619341C0.323389 0.692376 0.258433 0.788271 0.22285 0.896245C0.187266 1.00422 0.182466 1.11999 0.208988 1.23055L1.82651 7.20205H8.72995V8.42446H1.82651L0.184573 14.3776C0.159685 14.47 0.15678 14.5668 0.176091 14.6605C0.195402 14.7541 0.23639 14.842 0.29576 14.9169C0.355129 14.9918 0.431223 15.0517 0.517924 15.0918C0.604625 15.1319 0.699512 15.1511 0.794957 15.1477C0.890508 15.1472 0.984589 15.1241 1.06963 15.0805L14.4981 8.35723C14.5981 8.30594 14.682 8.22801 14.7406 8.13203C14.7991 8.03605 14.8301 7.92575 14.8301 7.81326C14.8301 7.70076 14.7991 7.59046 14.7406 7.49448C14.682 7.3985 14.5981 7.32057 14.4981 7.26928Z" fill="#FEFEFF"/>
</svg>
