<svg width="21" height="21" viewBox="0 0 21 21" fill="none" xmlns="http://www.w3.org/2000/svg">
<path d="M19.5405 8.05L17.6505 7.42L18.5405 5.64C18.6307 5.45369 18.6609 5.24397 18.6268 5.03978C18.5928 4.83558 18.4962 4.64699 18.3505 4.5L16.2205 2.37C16.0727 2.22209 15.8823 2.12421 15.676 2.09013C15.4697 2.05605 15.258 2.08748 15.0705 2.18L13.2905 3.07L12.6605 1.18C12.5939 0.982996 12.4676 0.811629 12.2992 0.689751C12.1307 0.567874 11.9284 0.501548 11.7205 0.500003H8.72046C8.51082 0.499462 8.30631 0.564822 8.13583 0.686845C7.96536 0.808868 7.83755 0.981382 7.77046 1.18L7.14046 3.07L5.36046 2.18C5.17415 2.08978 4.96443 2.05961 4.76023 2.09364C4.55604 2.12767 4.36744 2.22423 4.22046 2.37L2.09046 4.5C1.94255 4.64777 1.84467 4.83818 1.81059 5.04446C1.77651 5.25074 1.80794 5.46251 1.90046 5.65L2.79046 7.43L0.900462 8.06C0.703455 8.12654 0.532088 8.25283 0.41021 8.42131C0.288333 8.58979 0.222007 8.79207 0.220462 9V12C0.219921 12.2096 0.285281 12.4142 0.407304 12.5846C0.529327 12.7551 0.701841 12.8829 0.900462 12.95L2.79046 13.58L1.90046 15.36C1.81024 15.5463 1.78007 15.756 1.8141 15.9602C1.84813 16.1644 1.94469 16.353 2.09046 16.5L4.22046 18.63C4.36823 18.7779 4.55864 18.8758 4.76492 18.9099C4.9712 18.944 5.18297 18.9125 5.37046 18.82L7.15046 17.93L7.78046 19.82C7.84755 20.0186 7.97536 20.1911 8.14583 20.3132C8.31631 20.4352 8.52082 20.5005 8.73046 20.5H11.7305C11.9401 20.5005 12.1446 20.4352 12.3151 20.3132C12.4856 20.1911 12.6134 20.0186 12.6805 19.82L13.3105 17.93L15.0905 18.82C15.2756 18.9079 15.4833 18.9369 15.6854 18.9029C15.8875 18.8689 16.0743 18.7737 16.2205 18.63L18.3505 16.5C18.4984 16.3522 18.5963 16.1618 18.6303 15.9555C18.6644 15.7493 18.633 15.5375 18.5405 15.35L17.6505 13.57L19.5405 12.94C19.7375 12.8735 19.9088 12.7472 20.0307 12.5787C20.1526 12.4102 20.2189 12.2079 20.2205 12V9C20.221 8.79036 20.1556 8.58585 20.0336 8.41537C19.9116 8.2449 19.7391 8.11709 19.5405 8.05ZM18.2205 11.28L17.0205 11.68C16.7445 11.7695 16.4914 11.918 16.2785 12.1151C16.0657 12.3122 15.8983 12.5533 15.7879 12.8216C15.6776 13.0899 15.6269 13.379 15.6394 13.6688C15.6519 13.9586 15.7274 14.2422 15.8605 14.5L16.4305 15.64L15.3305 16.74L14.2205 16.14C13.964 16.0122 13.6831 15.9411 13.3968 15.9313C13.1104 15.9215 12.8253 15.9734 12.5608 16.0834C12.2962 16.1934 12.0584 16.3589 11.8634 16.5688C11.6684 16.7787 11.5207 17.0281 11.4305 17.3L11.0305 18.5H9.44046L9.04046 17.3C8.95095 17.0241 8.80249 16.7709 8.60536 16.5581C8.40823 16.3452 8.16717 16.1778 7.89888 16.0675C7.6306 15.9571 7.34151 15.9064 7.05169 15.919C6.76186 15.9315 6.47823 16.0069 6.22046 16.14L5.08046 16.71L3.98046 15.61L4.58046 14.5C4.71356 14.2422 4.78898 13.9586 4.80151 13.6688C4.81403 13.379 4.76336 13.0899 4.653 12.8216C4.54264 12.5533 4.37524 12.3122 4.16241 12.1151C3.94957 11.918 3.69641 11.7695 3.42046 11.68L2.22046 11.28V9.72L3.42046 9.32C3.69641 9.23049 3.94957 9.08203 4.16241 8.8849C4.37524 8.68778 4.54264 8.44671 4.653 8.17842C4.76336 7.91014 4.81403 7.62105 4.80151 7.33123C4.78898 7.0414 4.71356 6.75777 4.58046 6.5L4.01046 5.39L5.11046 4.29L6.22046 4.86C6.47823 4.9931 6.76186 5.06852 7.05169 5.08105C7.34151 5.09358 7.6306 5.0429 7.89888 4.93254C8.16717 4.82218 8.40823 4.65478 8.60536 4.44195C8.80249 4.22912 8.95095 3.97595 9.04046 3.7L9.44046 2.5H11.0005L11.4005 3.7C11.49 3.97595 11.6384 4.22912 11.8356 4.44195C12.0327 4.65478 12.2738 4.82218 12.542 4.93254C12.8103 5.0429 13.0994 5.09358 13.3892 5.08105C13.6791 5.06852 13.9627 4.9931 14.2205 4.86L15.3605 4.29L16.4605 5.39L15.8605 6.5C15.7327 6.75645 15.6615 7.03735 15.6518 7.32369C15.642 7.61003 15.6939 7.89513 15.8039 8.15969C15.9139 8.42424 16.0794 8.66207 16.2893 8.85708C16.4992 9.0521 16.7485 9.19973 17.0205 9.29L18.2205 9.69V11.28ZM10.2205 6.5C9.42934 6.5 8.65598 6.7346 7.99818 7.17413C7.34039 7.61365 6.82769 8.23836 6.52494 8.96927C6.22219 9.70017 6.14298 10.5044 6.29732 11.2804C6.45166 12.0563 6.83262 12.769 7.39204 13.3284C7.95145 13.8878 8.66418 14.2688 9.4401 14.4231C10.216 14.5775 11.0203 14.4983 11.7512 14.1955C12.4821 13.8928 13.1068 13.3801 13.5463 12.7223C13.9859 12.0645 14.2205 11.2911 14.2205 10.5C14.2205 9.43914 13.799 8.42172 13.0489 7.67158C12.2987 6.92143 11.2813 6.5 10.2205 6.5ZM10.2205 12.5C9.8249 12.5 9.43822 12.3827 9.10932 12.1629C8.78042 11.9432 8.52408 11.6308 8.3727 11.2654C8.22133 10.8999 8.18172 10.4978 8.25889 10.1098C8.33606 9.72186 8.52654 9.36549 8.80625 9.08579C9.08595 8.80608 9.44232 8.6156 9.83028 8.53843C10.2182 8.46126 10.6204 8.50087 10.9858 8.65224C11.3513 8.80362 11.6636 9.05996 11.8834 9.38886C12.1032 9.71776 12.2205 10.1044 12.2205 10.5C12.2205 11.0304 12.0097 11.5391 11.6347 11.9142C11.2596 12.2893 10.7509 12.5 10.2205 12.5Z" fill="#4C5D78"/>
</svg>
